{
	"asset":{
		"generator":"Khronos glTF Blender I/O v5.2.39",
		"version":"2.0"
	},
	"scene":0,
	"scenes":[
		{
			"name":"Scene",
			"nodes":[
				0,
				4,
				8,
				12,
				16,
				20,
				24
			]
		}
	],
	"nodes":[
		{
			"mesh":0,
			"name":"Chassis"
		},
		{
			"mesh":1,
			"name":"FootLeft1",
			"translation":[
				13.195832252502441,
				-4.283163547515869,
				0
			]
		},
		{
			"children":[
				1
			],
			"mesh":2,
			"name":"LowerLegLeft1",
			"translation":[
				13.196228981018066,
				2.1547253131866455,
				0.00017822635709308088
			]
		},
		{
			"children":[
				2
			],
			"mesh":3,
			"name":"UpperLegLeft1",
			"rotation":[
				-1,
				0,
				0,
				1.2076387179149606e-07
			],
			"translation":[
				2.9164981842041016,
				-0.04462064057588577,
				1.1404982805252075
			]
		},
		{
			"children":[
				3
			],
			"mesh":4,
			"name":"ShoulderLeft1",
			"rotation":[
				0.7071068286895752,
				0,
				0,
				0.7071068286895752
			],
			"scale":[
				0.3470325171947479,
				0.12185090035200119,
				0.3470325171947479
			],
			"translation":[
				0.9876548051834106,
				1.7435426712036133,
				1.8978924751281738
			]
		},
		{
			"mesh":5,
			"name":"FootLeft2",
			"translation":[
				13.195832252502441,
				-4.283164024353027,
				0
			]
		},
		{
			"children":[
				5
			],
			"mesh":6,
			"name":"LowerLegLeft2",
			"translation":[
				13.196228981018066,
				2.154726982116699,
				0.00017805054085329175
			]
		},
		{
			"children":[
				6
			],
			"mesh":7,
			"name":"UpperLegLeft2",
			"rotation":[
				-1,
				0,
				0,
				1.2076387179149606e-07
			],
			"translation":[
				2.9164981842041016,
				-0.04461950436234474,
				1.140498399734497
			]
		},
		{
			"children":[
				7
			],
			"mesh":8,
			"name":"ShoulderLeft2",
			"rotation":[
				0.7071068286895752,
				0,
				0,
				0.7071068286895752
			],
			"scale":[
				0.3470325171947479,
				0.12185090035200119,
				0.3470325171947479
			],
			"translation":[
				0.9876548051834106,
				1.7435426712036133,
				-0.006186008453369141
			]
		},
		{
			"mesh":9,
			"name":"FootLeft3",
			"translation":[
				13.19583511352539,
				-4.283163547515869,
				0
			]
		},
		{
			"children":[
				9
			],
			"mesh":10,
			"name":"LowerLegLeft3",
			"translation":[
				13.196229934692383,
				2.154726266860962,
				0.00017835356993600726
			]
		},
		{
			"children":[
				10
			],
			"mesh":11,
			"name":"UpperLegLeft3",
			"rotation":[
				-1,
				0,
				0,
				1.2076387179149606e-07
			],
			"translation":[
				2.9164979457855225,
				-0.044619686901569366,
				1.1404985189437866
			]
		},
		{
			"children":[
				11
			],
			"mesh":12,
			"name":"ShoulderLeft3",
			"rotation":[
				0.7071068286895752,
				0,
				0,
				0.7071068286895752
			],
			"scale":[
				0.3470325171947479,
				0.12185090035200119,
				0.3470325171947479
			],
			"translation":[
				0.9876548051834106,
				1.7435426712036133,
				-1.9009854793548584
			]
		},
		{
			"mesh":13,
			"name":"FootRight1",
			"translation":[
				13.195836067199707,
				-4.283164978027344,
				0
			]
		},
		{
			"children":[
				13
			],
			"mesh":14,
			"name":"LowerLegRight1",
			"translation":[
				13.19622802734375,
				2.1547274589538574,
				0.000178362664883025
			]
		},
		{
			"children":[
				14
			],
			"mesh":15,
			"name":"UpperLegRight1",
			"rotation":[
				-1,
				0,
				0,
				1.2076387179149606e-07
			],
			"translation":[
				2.9164979457855225,
				-0.04462013766169548,
				1.1404985189437866
			]
		},
		{
			"children":[
				15
			],
			"mesh":16,
			"name":"ShoulderRight1",
			"rotation":[
				0,
				0.7071068286895752,
				-0.7071068286895752,
				3.090862676913275e-08
			],
			"scale":[
				0.3470325171947479,
				0.12185090035200119,
				0.3470325171947479
			],
			"translation":[
				-0.9569108486175537,
				1.7435426712036133,
				1.8947994709014893
			]
		},
		{
			"mesh":17,
			"name":"FootRight2",
			"translation":[
				13.195836067199707,
				-4.283164024353027,
				0
			]
		},
		{
			"children":[
				17
			],
			"mesh":18,
			"name":"LowerLegRight2",
			"translation":[
				13.19622802734375,
				2.154726982116699,
				0.00017805962124839425
			]
		},
		{
			"children":[
				18
			],
			"mesh":19,
			"name":"UpperLegRight2",
			"rotation":[
				-1,
				0,
				0,
				1.2076387179149606e-07
			],
			"translation":[
				2.9164979457855225,
				-0.04461950808763504,
				1.140498399734497
			]
		},
		{
			"children":[
				19
			],
			"mesh":20,
			"name":"ShoulderRight2",
			"rotation":[
				0,
				0.7071068286895752,
				-0.7071068286895752,
				3.090862676913275e-08
			],
			"scale":[
				0.3470325171947479,
				0.12185090035200119,
				0.3470325171947479
			],
			"translation":[
				-0.9569108486175537,
				1.7435426712036133,
				0
			]
		},
		{
			"mesh":21,
			"name":"FootRight3",
			"translation":[
				13.19583511352539,
				-4.283164024353027,
				0
			]
		},
		{
			"children":[
				21
			],
			"mesh":22,
			"name":"LowerLegRight3",
			"translation":[
				13.19622802734375,
				2.1547274589538574,
				0.00017823543748818338
			]
		},
		{
			"children":[
				22
			],
			"mesh":23,
			"name":"UpperLegRight3",
			"rotation":[
				-1,
				0,
				0,
				1.2076387179149606e-07
			],
			"translation":[
				2.9164979457855225,
				-0.04462013766169548,
				1.1404982805252075
			]
		},
		{
			"children":[
				23
			],
			"mesh":24,
			"name":"ShoulderRight3",
			"rotation":[
				0,
				0.7071068286895752,
				-0.7071068286895752,
				3.090862676913275e-08
			],
			"scale":[
				0.3470325171947479,
				0.12185090035200119,
				0.3470325171947479
			],
			"translation":[
				-0.9569108486175537,
				1.7435426712036133,
				-1.904078483581543
			]
		}
	],
	"materials":[
		{
			"doubleSided":true,
			"name":"Orange",
			"pbrMetallicRoughness":{
				"baseColorFactor":[
					0.8000156879425049,
					0.2017655074596405,
					0.046033162623643875,
					1
				],
				"metallicFactor":0,
				"roughnessFactor":0.5
			}
		},
		{
			"doubleSided":true,
			"name":"Blue",
			"pbrMetallicRoughness":{
				"baseColorFactor":[
					0.14964905381202698,
					0.2988695502281189,
					0.8000074625015259,
					1
				],
				"metallicFactor":0,
				"roughnessFactor":0.5
			}
		},
		{
			"doubleSided":true,
			"name":"Brown",
			"pbrMetallicRoughness":{
				"baseColorFactor":[
					0.1306528002023697,
					0.05713465437293053,
					0.03233765810728073,
					1
				],
				"metallicFactor":0,
				"roughnessFactor":0.5
			}
		},
		{
			"doubleSided":true,
			"name":"Grey",
			"pbrMetallicRoughness":{
				"baseColorFactor":[
					0.3348400294780731,
					0.3348400294780731,
					0.3348400294780731,
					1
				],
				"metallicFactor":0,
				"roughnessFactor":0.5
			}
		},
		{
			"doubleSided":true,
			"name":"Tan",
			"pbrMetallicRoughness":{
				"baseColorFactor":[
					0.26910942792892456,
					0.1874741017818451,
					0.12671802937984467,
					1
				],
				"metallicFactor":0,
				"roughnessFactor":0.5
			}
		}
	],
	"meshes":[
		{
			"name":"Cylinder.001",
			"primitives":[
				{
					"attributes":{
						"POSITION":0,
						"NORMAL":1,
						"TEXCOORD_0":2
					},
					"indices":3,
					"material":0
				},
				{
					"attributes":{
						"POSITION":4,
						"NORMAL":5,
						"TEXCOORD_0":6
					},
					"indices":7,
					"material":1
				}
			]
		},
		{
			"name":"Cylinder.028",
			"primitives":[
				{
					"attributes":{
						"POSITION":8,
						"NORMAL":9,
						"TEXCOORD_0":10
					},
					"indices":11,
					"material":2
				},
				{
					"attributes":{
						"POSITION":12,
						"NORMAL":13,
						"TEXCOORD_0":14
					},
					"indices":15,
					"material":3
				}
			]
		},
		{
			"name":"Cylinder.026",
			"primitives":[
				{
					"attributes":{
						"POSITION":16,
						"NORMAL":17,
						"TEXCOORD_0":18
					},
					"indices":19,
					"material":4
				}
			]
		},
		{
			"name":"Cylinder.027",
			"primitives":[
				{
					"attributes":{
						"POSITION":20,
						"NORMAL":21,
						"TEXCOORD_0":22
					},
					"indices":23,
					"material":1
				}
			]
		},
		{
			"name":"Cylinder.029",
			"primitives":[
				{
					"attributes":{
						"POSITION":24,
						"NORMAL":25,
						"TEXCOORD_0":26
					},
					"indices":27,
					"material":3
				}
			]
		},
		{
			"name":"Cylinder.024",
			"primitives":[
				{
					"attributes":{
						"POSITION":28,
						"NORMAL":29,
						"TEXCOORD_0":30
					},
					"indices":11,
					"material":2
				},
				{
					"attributes":{
						"POSITION":31,
						"NORMAL":32,
						"TEXCOORD_0":33
					},
					"indices":15,
					"material":3
				}
			]
		},
		{
			"name":"Cylinder.022",
			"primitives":[
				{
					"attributes":{
						"POSITION":34,
						"NORMAL":35,
						"TEXCOORD_0":36
					},
					"indices":19,
					"material":4
				}
			]
		},
		{
			"name":"Cylinder.023",
			"primitives":[
				{
					"attributes":{
						"POSITION":37,
						"NORMAL":38,
						"TEXCOORD_0":39
					},
					"indices":23,
					"material":1
				}
			]
		},
		{
			"name":"Cylinder.025",
			"primitives":[
				{
					"attributes":{
						"POSITION":40,
						"NORMAL":41,
						"TEXCOORD_0":42
					},
					"indices":27,
					"material":3
				}
			]
		},
		{
			"name":"Cylinder.032",
			"primitives":[
				{
					"attributes":{
						"POSITION":43,
						"NORMAL":44,
						"TEXCOORD_0":45
					},
					"indices":11,
					"material":2
				},
				{
					"attributes":{
						"POSITION":46,
						"NORMAL":47,
						"TEXCOORD_0":48
					},
					"indices":15,
					"material":3
				}
			]
		},
		{
			"name":"Cylinder.030",
			"primitives":[
				{
					"attributes":{
						"POSITION":49,
						"NORMAL":50,
						"TEXCOORD_0":51
					},
					"indices":19,
					"material":4
				}
			]
		},
		{
			"name":"Cylinder.031",
			"primitives":[
				{
					"attributes":{
						"POSITION":52,
						"NORMAL":53,
						"TEXCOORD_0":54
					},
					"indices":23,
					"material":1
				}
			]
		},
		{
			"name":"Cylinder.033",
			"primitives":[
				{
					"attributes":{
						"POSITION":55,
						"NORMAL":56,
						"TEXCOORD_0":57
					},
					"indices":27,
					"material":3
				}
			]
		},
		{
			"name":"Cylinder.020",
			"primitives":[
				{
					"attributes":{
						"POSITION":58,
						"NORMAL":59,
						"TEXCOORD_0":60
					},
					"indices":11,
					"material":2
				},
				{
					"attributes":{
						"POSITION":61,
						"NORMAL":62,
						"TEXCOORD_0":63
					},
					"indices":15,
					"material":3
				}
			]
		},
		{
			"name":"Cylinder.018",
			"primitives":[
				{
					"attributes":{
						"POSITION":64,
						"NORMAL":65,
						"TEXCOORD_0":66
					},
					"indices":19,
					"material":4
				}
			]
		},
		{
			"name":"Cylinder.019",
			"primitives":[
				{
					"attributes":{
						"POSITION":67,
						"NORMAL":68,
						"TEXCOORD_0":69
					},
					"indices":23,
					"material":1
				}
			]
		},
		{
			"name":"Cylinder.021",
			"primitives":[
				{
					"attributes":{
						"POSITION":70,
						"NORMAL":71,
						"TEXCOORD_0":72
					},
					"indices":27,
					"material":3
				}
			]
		},
		{
			"name":"Cylinder.011",
			"primitives":[
				{
					"attributes":{
						"POSITION":73,
						"NORMAL":74,
						"TEXCOORD_0":75
					},
					"indices":11,
					"material":2
				},
				{
					"attributes":{
						"POSITION":76,
						"NORMAL":77,
						"TEXCOORD_0":78
					},
					"indices":15,
					"material":3
				}
			]
		},
		{
			"name":"Cylinder.009",
			"primitives":[
				{
					"attributes":{
						"POSITION":79,
						"NORMAL":80,
						"TEXCOORD_0":81
					},
					"indices":19,
					"material":4
				}
			]
		},
		{
			"name":"Cylinder.010",
			"primitives":[
				{
					"attributes":{
						"POSITION":82,
						"NORMAL":83,
						"TEXCOORD_0":84
					},
					"indices":23,
					"material":1
				}
			]
		},
		{
			"name":"Cylinder.013",
			"primitives":[
				{
					"attributes":{
						"POSITION":85,
						"NORMAL":86,
						"TEXCOORD_0":87
					},
					"indices":27,
					"material":3
				}
			]
		},
		{
			"name":"Cylinder.016",
			"primitives":[
				{
					"attributes":{
						"POSITION":88,
						"NORMAL":89,
						"TEXCOORD_0":90
					},
					"indices":11,
					"material":2
				},
				{
					"attributes":{
						"POSITION":91,
						"NORMAL":92,
						"TEXCOORD_0":93
					},
					"indices":15,
					"material":3
				}
			]
		},
		{
			"name":"Cylinder.014",
			"primitives":[
				{
					"attributes":{
						"POSITION":94,
						"NORMAL":95,
						"TEXCOORD_0":96
					},
					"indices":19,
					"material":4
				}
			]
		},
		{
			"name":"Cylinder.015",
			"primitives":[
				{
					"attributes":{
						"POSITION":97,
						"NORMAL":98,
						"TEXCOORD_0":99
					},
					"indices":23,
					"material":1
				}
			]
		},
		{
			"name":"Cylinder.017",
			"primitives":[
				{
					"attributes":{
						"POSITION":100,
						"NORMAL":101,
						"TEXCOORD_0":102
					},
					"indices":27,
					"material":3
				}
			]
		}
	],
	"accessors":[
		{
			"bufferView":0,
			"componentType":5126,
			"count":384,
			"max":[
				0.9999990463256836,
				2.984027862548828,
				3.693333148956299
			],
			"min":[
				-1.0000011920928955,
				0.6986229419708252,
				-2.4752919673919678
			],
			"type":"VEC3"
		},
		{
			"bufferView":1,
			"componentType":5126,
			"count":384,
			"type":"VEC3"
		},
		{
			"bufferView":2,
			"componentType":5126,
			"count":384,
			"type":"VEC2"
		},
		{
			"bufferView":3,
			"componentType":5123,
			"count":744,
			"type":"SCALAR"
		},
		{
			"bufferView":4,
			"componentType":5126,
			"count":24,
			"max":[
				0.998711109161377,
				1.6945397853851318,
				2.4936201572418213
			],
			"min":[
				-1.009345293045044,
				0.9995071887969971,
				-2.493619918823242
			],
			"type":"VEC3"
		},
		{
			"bufferView":5,
			"componentType":5126,
			"count":24,
			"type":"VEC3"
		},
		{
			"bufferView":6,
			"componentType":5126,
			"count":24,
			"type":"VEC2"
		},
		{
			"bufferView":7,
			"componentType":5123,
			"count":36,
			"type":"SCALAR"
		},
		{
			"bufferView":8,
			"componentType":5126,
			"count":228,
			"max":[
				1.2086693048477173,
				5.283166885375977,
				1.0000001192092896
			],
			"min":[
				-1,
				-1,
				-1.0000001192092896
			],
			"type":"VEC3"
		},
		{
			"bufferView":9,
			"componentType":5126,
			"count":228,
			"type":"VEC3"
		},
		{
			"bufferView":10,
			"componentType":5126,
			"count":228,
			"type":"VEC2"
		},
		{
			"bufferView":11,
			"componentType":5123,
			"count":456,
			"type":"SCALAR"
		},
		{
			"bufferView":12,
			"componentType":5126,
			"count":24,
			"max":[
				1.9342560768127441,
				6.766146659851074,
				1.0036760568618774
			],
			"min":[
				1.2125482559204102,
				-2.466499090194702,
				-0.9991122484207153
			],
			"type":"VEC3"
		},
		{
			"bufferView":13,
			"componentType":5126,
			"count":24,
			"type":"VEC3"
		},
		{
			"bufferView":14,
			"componentType":5126,
			"count":24,
			"type":"VEC2"
		},
		{
			"bufferView":15,
			"componentType":5123,
			"count":36,
			"type":"SCALAR"
		},
		{
			"bufferView":16,
			"componentType":5126,
			"count":396,
			"max":[
				14.344827651977539,
				1.0000001192092896,
				1.0030361413955688
			],
			"min":[
				-1.0000001192092896,
				-5.283166885375977,
				-1.0000001192092896
			],
			"type":"VEC3"
		},
		{
			"bufferView":17,
			"componentType":5126,
			"count":396,
			"type":"VEC3"
		},
		{
			"bufferView":18,
			"componentType":5126,
			"count":396,
			"type":"VEC2"
		},
		{
			"bufferView":19,
			"componentType":5123,
			"count":804,
			"type":"SCALAR"
		},
		{
			"bufferView":20,
			"componentType":5126,
			"count":236,
			"max":[
				14.337291717529297,
				1.000000238418579,
				1.003216028213501
			],
			"min":[
				-1,
				-1.000000238418579,
				-0.9998201131820679
			],
			"type":"VEC3"
		},
		{
			"bufferView":21,
			"componentType":5126,
			"count":236,
			"type":"VEC3"
		},
		{
			"bufferView":22,
			"componentType":5126,
			"count":236,
			"type":"VEC2"
		},
		{
			"bufferView":23,
			"componentType":5123,
			"count":492,
			"type":"SCALAR"
		},
		{
			"bufferView":24,
			"componentType":5126,
			"count":420,
			"max":[
				3.902005672454834,
				4.7613115310668945,
				2.2701520919799805
			],
			"min":[
				-1.6718039512634277,
				-4.7613115310668945,
				-9.5367431640625e-07
			],
			"type":"VEC3"
		},
		{
			"bufferView":25,
			"componentType":5126,
			"count":420,
			"type":"VEC3"
		},
		{
			"bufferView":26,
			"componentType":5126,
			"count":420,
			"type":"VEC2"
		},
		{
			"bufferView":27,
			"componentType":5123,
			"count":828,
			"type":"SCALAR"
		},
		{
			"bufferView":28,
			"componentType":5126,
			"count":228,
			"max":[
				1.2086693048477173,
				5.283166885375977,
				1.0000001192092896
			],
			"min":[
				-1,
				-1,
				-1.0000001192092896
			],
			"type":"VEC3"
		},
		{
			"bufferView":29,
			"componentType":5126,
			"count":228,
			"type":"VEC3"
		},
		{
			"bufferView":30,
			"componentType":5126,
			"count":228,
			"type":"VEC2"
		},
		{
			"bufferView":31,
			"componentType":5126,
			"count":24,
			"max":[
				1.9342560768127441,
				6.766146659851074,
				1.0036760568618774
			],
			"min":[
				1.2125482559204102,
				-2.466499090194702,
				-0.9991122484207153
			],
			"type":"VEC3"
		},
		{
			"bufferView":32,
			"componentType":5126,
			"count":24,
			"type":"VEC3"
		},
		{
			"bufferView":33,
			"componentType":5126,
			"count":24,
			"type":"VEC2"
		},
		{
			"bufferView":34,
			"componentType":5126,
			"count":396,
			"max":[
				14.344827651977539,
				1.0000001192092896,
				1.0030361413955688
			],
			"min":[
				-1.0000001192092896,
				-5.283166885375977,
				-1.0000001192092896
			],
			"type":"VEC3"
		},
		{
			"bufferView":35,
			"componentType":5126,
			"count":396,
			"type":"VEC3"
		},
		{
			"bufferView":36,
			"componentType":5126,
			"count":396,
			"type":"VEC2"
		},
		{
			"bufferView":37,
			"componentType":5126,
			"count":236,
			"max":[
				14.337291717529297,
				1.000000238418579,
				1.003216028213501
			],
			"min":[
				-1,
				-1.000000238418579,
				-0.9998201131820679
			],
			"type":"VEC3"
		},
		{
			"bufferView":38,
			"componentType":5126,
			"count":236,
			"type":"VEC3"
		},
		{
			"bufferView":39,
			"componentType":5126,
			"count":236,
			"type":"VEC2"
		},
		{
			"bufferView":40,
			"componentType":5126,
			"count":420,
			"max":[
				3.902005672454834,
				4.7613115310668945,
				2.2701520919799805
			],
			"min":[
				-1.6718039512634277,
				-4.7613115310668945,
				-9.5367431640625e-07
			],
			"type":"VEC3"
		},
		{
			"bufferView":41,
			"componentType":5126,
			"count":420,
			"type":"VEC3"
		},
		{
			"bufferView":42,
			"componentType":5126,
			"count":420,
			"type":"VEC2"
		},
		{
			"bufferView":43,
			"componentType":5126,
			"count":228,
			"max":[
				1.2086693048477173,
				5.283166885375977,
				1.0000001192092896
			],
			"min":[
				-1,
				-1,
				-1.0000001192092896
			],
			"type":"VEC3"
		},
		{
			"bufferView":44,
			"componentType":5126,
			"count":228,
			"type":"VEC3"
		},
		{
			"bufferView":45,
			"componentType":5126,
			"count":228,
			"type":"VEC2"
		},
		{
			"bufferView":46,
			"componentType":5126,
			"count":24,
			"max":[
				1.9342560768127441,
				6.766146659851074,
				1.0036760568618774
			],
			"min":[
				1.2125482559204102,
				-2.466499090194702,
				-0.9991122484207153
			],
			"type":"VEC3"
		},
		{
			"bufferView":47,
			"componentType":5126,
			"count":24,
			"type":"VEC3"
		},
		{
			"bufferView":48,
			"componentType":5126,
			"count":24,
			"type":"VEC2"
		},
		{
			"bufferView":49,
			"componentType":5126,
			"count":396,
			"max":[
				14.344827651977539,
				1.0000001192092896,
				1.0030361413955688
			],
			"min":[
				-1.0000001192092896,
				-5.283166885375977,
				-1.0000001192092896
			],
			"type":"VEC3"
		},
		{
			"bufferView":50,
			"componentType":5126,
			"count":396,
			"type":"VEC3"
		},
		{
			"bufferView":51,
			"componentType":5126,
			"count":396,
			"type":"VEC2"
		},
		{
			"bufferView":52,
			"componentType":5126,
			"count":236,
			"max":[
				14.337291717529297,
				1.000000238418579,
				1.003216028213501
			],
			"min":[
				-1,
				-1.000000238418579,
				-0.9998201131820679
			],
			"type":"VEC3"
		},
		{
			"bufferView":53,
			"componentType":5126,
			"count":236,
			"type":"VEC3"
		},
		{
			"bufferView":54,
			"componentType":5126,
			"count":236,
			"type":"VEC2"
		},
		{
			"bufferView":55,
			"componentType":5126,
			"count":420,
			"max":[
				3.902005672454834,
				4.7613115310668945,
				2.2701520919799805
			],
			"min":[
				-1.6718039512634277,
				-4.7613115310668945,
				-9.5367431640625e-07
			],
			"type":"VEC3"
		},
		{
			"bufferView":56,
			"componentType":5126,
			"count":420,
			"type":"VEC3"
		},
		{
			"bufferView":57,
			"componentType":5126,
			"count":420,
			"type":"VEC2"
		},
		{
			"bufferView":58,
			"componentType":5126,
			"count":228,
			"max":[
				1.2086693048477173,
				5.283166885375977,
				1.0000001192092896
			],
			"min":[
				-1,
				-1,
				-1.0000001192092896
			],
			"type":"VEC3"
		},
		{
			"bufferView":59,
			"componentType":5126,
			"count":228,
			"type":"VEC3"
		},
		{
			"bufferView":60,
			"componentType":5126,
			"count":228,
			"type":"VEC2"
		},
		{
			"bufferView":61,
			"componentType":5126,
			"count":24,
			"max":[
				1.9342560768127441,
				6.766146659851074,
				1.0036760568618774
			],
			"min":[
				1.2125482559204102,
				-2.466499090194702,
				-0.9991122484207153
			],
			"type":"VEC3"
		},
		{
			"bufferView":62,
			"componentType":5126,
			"count":24,
			"type":"VEC3"
		},
		{
			"bufferView":63,
			"componentType":5126,
			"count":24,
			"type":"VEC2"
		},
		{
			"bufferView":64,
			"componentType":5126,
			"count":396,
			"max":[
				14.344827651977539,
				1.0000001192092896,
				1.0030361413955688
			],
			"min":[
				-1.0000001192092896,
				-5.283166885375977,
				-1.0000001192092896
			],
			"type":"VEC3"
		},
		{
			"bufferView":65,
			"componentType":5126,
			"count":396,
			"type":"VEC3"
		},
		{
			"bufferView":66,
			"componentType":5126,
			"count":396,
			"type":"VEC2"
		},
		{
			"bufferView":67,
			"componentType":5126,
			"count":236,
			"max":[
				14.337291717529297,
				1.000000238418579,
				1.003216028213501
			],
			"min":[
				-1,
				-1.000000238418579,
				-0.9998201131820679
			],
			"type":"VEC3"
		},
		{
			"bufferView":68,
			"componentType":5126,
			"count":236,
			"type":"VEC3"
		},
		{
			"bufferView":69,
			"componentType":5126,
			"count":236,
			"type":"VEC2"
		},
		{
			"bufferView":70,
			"componentType":5126,
			"count":420,
			"max":[
				3.902005672454834,
				4.7613115310668945,
				2.2701520919799805
			],
			"min":[
				-1.6718039512634277,
				-4.7613115310668945,
				-9.5367431640625e-07
			],
			"type":"VEC3"
		},
		{
			"bufferView":71,
			"componentType":5126,
			"count":420,
			"type":"VEC3"
		},
		{
			"bufferView":72,
			"componentType":5126,
			"count":420,
			"type":"VEC2"
		},
		{
			"bufferView":73,
			"componentType":5126,
			"count":228,
			"max":[
				1.2086693048477173,
				5.283166885375977,
				1.0000001192092896
			],
			"min":[
				-1,
				-1,
				-1.0000001192092896
			],
			"type":"VEC3"
		},
		{
			"bufferView":74,
			"componentType":5126,
			"count":228,
			"type":"VEC3"
		},
		{
			"bufferView":75,
			"componentType":5126,
			"count":228,
			"type":"VEC2"
		},
		{
			"bufferView":76,
			"componentType":5126,
			"count":24,
			"max":[
				1.9342560768127441,
				6.766146659851074,
				1.0036760568618774
			],
			"min":[
				1.2125482559204102,
				-2.466499090194702,
				-0.9991122484207153
			],
			"type":"VEC3"
		},
		{
			"bufferView":77,
			"componentType":5126,
			"count":24,
			"type":"VEC3"
		},
		{
			"bufferView":78,
			"componentType":5126,
			"count":24,
			"type":"VEC2"
		},
		{
			"bufferView":79,
			"componentType":5126,
			"count":396,
			"max":[
				14.344827651977539,
				1.0000001192092896,
				1.0030361413955688
			],
			"min":[
				-1.0000001192092896,
				-5.283166885375977,
				-1.0000001192092896
			],
			"type":"VEC3"
		},
		{
			"bufferView":80,
			"componentType":5126,
			"count":396,
			"type":"VEC3"
		},
		{
			"bufferView":81,
			"componentType":5126,
			"count":396,
			"type":"VEC2"
		},
		{
			"bufferView":82,
			"componentType":5126,
			"count":236,
			"max":[
				14.337291717529297,
				1.000000238418579,
				1.003216028213501
			],
			"min":[
				-1,
				-1.000000238418579,
				-0.9998201131820679
			],
			"type":"VEC3"
		},
		{
			"bufferView":83,
			"componentType":5126,
			"count":236,
			"type":"VEC3"
		},
		{
			"bufferView":84,
			"componentType":5126,
			"count":236,
			"type":"VEC2"
		},
		{
			"bufferView":85,
			"componentType":5126,
			"count":420,
			"max":[
				3.902005672454834,
				4.7613115310668945,
				2.2701520919799805
			],
			"min":[
				-1.6718039512634277,
				-4.7613115310668945,
				-9.5367431640625e-07
			],
			"type":"VEC3"
		},
		{
			"bufferView":86,
			"componentType":5126,
			"count":420,
			"type":"VEC3"
		},
		{
			"bufferView":87,
			"componentType":5126,
			"count":420,
			"type":"VEC2"
		},
		{
			"bufferView":88,
			"componentType":5126,
			"count":228,
			"max":[
				1.2086693048477173,
				5.283166885375977,
				1.0000001192092896
			],
			"min":[
				-1,
				-1,
				-1.0000001192092896
			],
			"type":"VEC3"
		},
		{
			"bufferView":89,
			"componentType":5126,
			"count":228,
			"type":"VEC3"
		},
		{
			"bufferView":90,
			"componentType":5126,
			"count":228,
			"type":"VEC2"
		},
		{
			"bufferView":91,
			"componentType":5126,
			"count":24,
			"max":[
				1.9342560768127441,
				6.766146659851074,
				1.0036760568618774
			],
			"min":[
				1.2125482559204102,
				-2.466499090194702,
				-0.9991122484207153
			],
			"type":"VEC3"
		},
		{
			"bufferView":92,
			"componentType":5126,
			"count":24,
			"type":"VEC3"
		},
		{
			"bufferView":93,
			"componentType":5126,
			"count":24,
			"type":"VEC2"
		},
		{
			"bufferView":94,
			"componentType":5126,
			"count":396,
			"max":[
				14.344827651977539,
				1.0000001192092896,
				1.0030361413955688
			],
			"min":[
				-1.0000001192092896,
				-5.283166885375977,
				-1.0000001192092896
			],
			"type":"VEC3"
		},
		{
			"bufferView":95,
			"componentType":5126,
			"count":396,
			"type":"VEC3"
		},
		{
			"bufferView":96,
			"componentType":5126,
			"count":396,
			"type":"VEC2"
		},
		{
			"bufferView":97,
			"componentType":5126,
			"count":236,
			"max":[
				14.337291717529297,
				1.000000238418579,
				1.003216028213501
			],
			"min":[
				-1,
				-1.000000238418579,
				-0.9998201131820679
			],
			"type":"VEC3"
		},
		{
			"bufferView":98,
			"componentType":5126,
			"count":236,
			"type":"VEC3"
		},
		{
			"bufferView":99,
			"componentType":5126,
			"count":236,
			"type":"VEC2"
		},
		{
			"bufferView":100,
			"componentType":5126,
			"count":420,
			"max":[
				3.902005672454834,
				4.7613115310668945,
				2.2701520919799805
			],
			"min":[
				-1.6718039512634277,
				-4.7613115310668945,
				-9.5367431640625e-07
			],
			"type":"VEC3"
		},
		{
			"bufferView":101,
			"componentType":5126,
			"count":420,
			"type":"VEC3"
		},
		{
			"bufferView":102,
			"componentType":5126,
			"count":420,
			"type":"VEC2"
		}
	],
	"bufferViews":[
		{
			"buffer":0,
			"byteLength":4608,
			"byteOffset":0,
			"target":34962
		},
		{
			"buffer":0,
			"byteLength":4608,
			"byteOffset":4608,
			"target":34962
		},
		{
			"buffer":0,
			"byteLength":3072,
			"byteOffset":9216,
			"target":34962
		},
		{
			"buffer":0,
			"byteLength":1488,
			"byteOffset":12288,
			"target":34963
		},
		{
			"buffer":0,
			"byteLength":288,
			"byteOffset":13776,
			"target":34962
		},
		{
			"buffer":0,
			"byteLength":288,
			"byteOffset":14064,
			"target":34962
		},
		{
			"buffer":0,
			"byteLength":192,
			"byteOffset":14352,
			"target":34962
		},
		{
			"buffer":0,
			"byteLength":72,
			"byteOffset":14544,
			"target":34963
		},
		{
			"buffer":0,
			"byteLength":2736,
			"byteOffset":14616,
			"target":34962
		},
		{
			"buffer":0,
			"byteLength":2736,
			"byteOffset":17352,
			"target":34962
		},
		{
			"buffer":0,
			"byteLength":1824,
			"byteOffset":20088,
			"target":34962
		},
		{
			"buffer":0,
			"byteLength":912,
			"byteOffset":21912,
			"target":34963
		},
		{
			"buffer":0,
			"byteLength":288,
			"byteOffset":22824,
			"target":34962
		},
		{
			"buffer":0,
			"byteLength":288,
			"byteOffset":23112,
			"target":34962
		},
		{
			"buffer":0,
			"byteLength":192,
			"byteOffset":23400,
			"target":34962
		},
		{
			"buffer":0,
			"byteLength":72,
			"byteOffset":23592,
			"target":34963
		},
		{
			"buffer":0,
			"byteLength":4752,
			"byteOffset":23664,
			"target":34962
		},
		{
			"buffer":0,
			"byteLength":4752,
			"byteOffset":28416,
			"target":34962
		},
		{
			"buffer":0,
			"byteLength":3168,
			"byteOffset":33168,
			"target":34962
		},
		{
			"buffer":0,
			"byteLength":1608,
			"byteOffset":36336,
			"target":34963
		},
		{
			"buffer":0,
			"byteLength":2832,
			"byteOffset":37944,
			"target":34962
		},
		{
			"buffer":0,
			"byteLength":2832,
			"byteOffset":40776,
			"target":34962
		},
		{
			"buffer":0,
			"byteLength":1888,
			"byteOffset":43608,
			"target":34962
		},
		{
			"buffer":0,
			"byteLength":984,
			"byteOffset":45496,
			"target":34963
		},
		{
			"buffer":0,
			"byteLength":5040,
			"byteOffset":46480,
			"target":34962
		},
		{
			"buffer":0,
			"byteLength":5040,
			"byteOffset":51520,
			"target":34962
		},
		{
			"buffer":0,
			"byteLength":3360,
			"byteOffset":56560,
			"target":34962
		},
		{
			"buffer":0,
			"byteLength":1656,
			"byteOffset":59920,
			"target":34963
		},
		{
			"buffer":0,
			"byteLength":2736,
			"byteOffset":61576,
			"target":34962
		},
		{
			"buffer":0,
			"byteLength":2736,
			"byteOffset":64312,
			"target":34962
		},
		{
			"buffer":0,
			"byteLength":1824,
			"byteOffset":67048,
			"target":34962
		},
		{
			"buffer":0,
			"byteLength":288,
			"byteOffset":68872,
			"target":34962
		},
		{
			"buffer":0,
			"byteLength":288,
			"byteOffset":69160,
			"target":34962
		},
		{
			"buffer":0,
			"byteLength":192,
			"byteOffset":69448,
			"target":34962
		},
		{
			"buffer":0,
			"byteLength":4752,
			"byteOffset":69640,
			"target":34962
		},
		{
			"buffer":0,
			"byteLength":4752,
			"byteOffset":74392,
			"target":34962
		},
		{
			"buffer":0,
			"byteLength":3168,
			"byteOffset":79144,
			"target":34962
		},
		{
			"buffer":0,
			"byteLength":2832,
			"byteOffset":82312,
			"target":34962
		},
		{
			"buffer":0,
			"byteLength":2832,
			"byteOffset":85144,
			"target":34962
		},
		{
			"buffer":0,
			"byteLength":1888,
			"byteOffset":87976,
			"target":34962
		},
		{
			"buffer":0,
			"byteLength":5040,
			"byteOffset":89864,
			"target":34962
		},
		{
			"buffer":0,
			"byteLength":5040,
			"byteOffset":94904,
			"target":34962
		},
		{
			"buffer":0,
			"byteLength":3360,
			"byteOffset":99944,
			"target":34962
		},
		{
			"buffer":0,
			"byteLength":2736,
			"byteOffset":103304,
			"target":34962
		},
		{
			"buffer":0,
			"byteLength":2736,
			"byteOffset":106040,
			"target":34962
		},
		{
			"buffer":0,
			"byteLength":1824,
			"byteOffset":108776,
			"target":34962
		},
		{
			"buffer":0,
			"byteLength":288,
			"byteOffset":110600,
			"target":34962
		},
		{
			"buffer":0,
			"byteLength":288,
			"byteOffset":110888,
			"target":34962
		},
		{
			"buffer":0,
			"byteLength":192,
			"byteOffset":111176,
			"target":34962
		},
		{
			"buffer":0,
			"byteLength":4752,
			"byteOffset":111368,
			"target":34962
		},
		{
			"buffer":0,
			"byteLength":4752,
			"byteOffset":116120,
			"target":34962
		},
		{
			"buffer":0,
			"byteLength":3168,
			"byteOffset":120872,
			"target":34962
		},
		{
			"buffer":0,
			"byteLength":2832,
			"byteOffset":124040,
			"target":34962
		},
		{
			"buffer":0,
			"byteLength":2832,
			"byteOffset":126872,
			"target":34962
		},
		{
			"buffer":0,
			"byteLength":1888,
			"byteOffset":129704,
			"target":34962
		},
		{
			"buffer":0,
			"byteLength":5040,
			"byteOffset":131592,
			"target":34962
		},
		{
			"buffer":0,
			"byteLength":5040,
			"byteOffset":136632,
			"target":34962
		},
		{
			"buffer":0,
			"byteLength":3360,
			"byteOffset":141672,
			"target":34962
		},
		{
			"buffer":0,
			"byteLength":2736,
			"byteOffset":145032,
			"target":34962
		},
		{
			"buffer":0,
			"byteLength":2736,
			"byteOffset":147768,
			"target":34962
		},
		{
			"buffer":0,
			"byteLength":1824,
			"byteOffset":150504,
			"target":34962
		},
		{
			"buffer":0,
			"byteLength":288,
			"byteOffset":152328,
			"target":34962
		},
		{
			"buffer":0,
			"byteLength":288,
			"byteOffset":152616,
			"target":34962
		},
		{
			"buffer":0,
			"byteLength":192,
			"byteOffset":152904,
			"target":34962
		},
		{
			"buffer":0,
			"byteLength":4752,
			"byteOffset":153096,
			"target":34962
		},
		{
			"buffer":0,
			"byteLength":4752,
			"byteOffset":157848,
			"target":34962
		},
		{
			"buffer":0,
			"byteLength":3168,
			"byteOffset":162600,
			"target":34962
		},
		{
			"buffer":0,
			"byteLength":2832,
			"byteOffset":165768,
			"target":34962
		},
		{
			"buffer":0,
			"byteLength":2832,
			"byteOffset":168600,
			"target":34962
		},
		{
			"buffer":0,
			"byteLength":1888,
			"byteOffset":171432,
			"target":34962
		},
		{
			"buffer":0,
			"byteLength":5040,
			"byteOffset":173320,
			"target":34962
		},
		{
			"buffer":0,
			"byteLength":5040,
			"byteOffset":178360,
			"target":34962
		},
		{
			"buffer":0,
			"byteLength":3360,
			"byteOffset":183400,
			"target":34962
		},
		{
			"buffer":0,
			"byteLength":2736,
			"byteOffset":186760,
			"target":34962
		},
		{
			"buffer":0,
			"byteLength":2736,
			"byteOffset":189496,
			"target":34962
		},
		{
			"buffer":0,
			"byteLength":1824,
			"byteOffset":192232,
			"target":34962
		},
		{
			"buffer":0,
			"byteLength":288,
			"byteOffset":194056,
			"target":34962
		},
		{
			"buffer":0,
			"byteLength":288,
			"byteOffset":194344,
			"target":34962
		},
		{
			"buffer":0,
			"byteLength":192,
			"byteOffset":194632,
			"target":34962
		},
		{
			"buffer":0,
			"byteLength":4752,
			"byteOffset":194824,
			"target":34962
		},
		{
			"buffer":0,
			"byteLength":4752,
			"byteOffset":199576,
			"target":34962
		},
		{
			"buffer":0,
			"byteLength":3168,
			"byteOffset":204328,
			"target":34962
		},
		{
			"buffer":0,
			"byteLength":2832,
			"byteOffset":207496,
			"target":34962
		},
		{
			"buffer":0,
			"byteLength":2832,
			"byteOffset":210328,
			"target":34962
		},
		{
			"buffer":0,
			"byteLength":1888,
			"byteOffset":213160,
			"target":34962
		},
		{
			"buffer":0,
			"byteLength":5040,
			"byteOffset":215048,
			"target":34962
		},
		{
			"buffer":0,
			"byteLength":5040,
			"byteOffset":220088,
			"target":34962
		},
		{
			"buffer":0,
			"byteLength":3360,
			"byteOffset":225128,
			"target":34962
		},
		{
			"buffer":0,
			"byteLength":2736,
			"byteOffset":228488,
			"target":34962
		},
		{
			"buffer":0,
			"byteLength":2736,
			"byteOffset":231224,
			"target":34962
		},
		{
			"buffer":0,
			"byteLength":1824,
			"byteOffset":233960,
			"target":34962
		},
		{
			"buffer":0,
			"byteLength":288,
			"byteOffset":235784,
			"target":34962
		},
		{
			"buffer":0,
			"byteLength":288,
			"byteOffset":236072,
			"target":34962
		},
		{
			"buffer":0,
			"byteLength":192,
			"byteOffset":236360,
			"target":34962
		},
		{
			"buffer":0,
			"byteLength":4752,
			"byteOffset":236552,
			"target":34962
		},
		{
			"buffer":0,
			"byteLength":4752,
			"byteOffset":241304,
			"target":34962
		},
		{
			"buffer":0,
			"byteLength":3168,
			"byteOffset":246056,
			"target":34962
		},
		{
			"buffer":0,
			"byteLength":2832,
			"byteOffset":249224,
			"target":34962
		},
		{
			"buffer":0,
			"byteLength":2832,
			"byteOffset":252056,
			"target":34962
		},
		{
			"buffer":0,
			"byteLength":1888,
			"byteOffset":254888,
			"target":34962
		},
		{
			"buffer":0,
			"byteLength":5040,
			"byteOffset":256776,
			"target":34962
		},
		{
			"buffer":0,
			"byteLength":5040,
			"byteOffset":261816,
			"target":34962
		},
		{
			"buffer":0,
			"byteLength":3360,
			"byteOffset":266856,
			"target":34962
		}
	],
	"buffers":[
		{
			"byteLength":270216,
			"uri":"2DWalker_v0_3.bin"
		}
	]
}
