{
	"asset":{
		"generator":"Khronos glTF Blender I/O v5.2.39",
		"version":"2.0"
	},
	"scene":0,
	"scenes":[
		{
			"name":"Scene",
			"nodes":[
				6
			]
		}
	],
	"nodes":[
		{
			"mesh":0,
			"name":"FootLeft",
			"translation":[
				13.195834159851074,
				-4.283163547515869,
				0
			]
		},
		{
			"children":[
				0
			],
			"mesh":1,
			"name":"LowerLegLeft",
			"translation":[
				13.196229934692383,
				2.15472674369812,
				0.00017820403445512056
			]
		},
		{
			"children":[
				1
			],
			"mesh":2,
			"name":"UpperLegLeft",
			"rotation":[
				0,
				1,
				0,
				4.3711430919302074e-08
			],
			"translation":[
				0,
				2.1284446716308594,
				0.0001800032623577863
			]
		},
		{
			"mesh":3,
			"name":"FootRight",
			"translation":[
				13.195834159851074,
				-4.283163547515869,
				0
			]
		},
		{
			"children":[
				3
			],
			"mesh":4,
			"name":"LowerLegRight",
			"translation":[
				13.196228981018066,
				2.15472674369812,
				0.000178196671186015
			]
		},
		{
			"children":[
				4
			],
			"mesh":5,
			"name":"UpperLegRight",
			"rotation":[
				-1,
				0,
				0,
				1.2076385758064134e-07
			],
			"translation":[
				8.173439979553223,
				2.1882636547088623,
				0.0001800048485165462
			]
		},
		{
			"children":[
				2,
				5
			],
			"mesh":6,
			"name":"Base",
			"rotation":[
				0,
				0.7071068286895752,
				-0.7071068286895752,
				3.090862676913275e-08
			],
			"scale":[
				0.3470325171947479,
				0.12185090035200119,
				0.3470325171947479
			],
			"translation":[
				1.4114491939544678,
				1.3478152751922607,
				0.2720789611339569
			]
		}
	],
	"materials":[
		{
			"doubleSided":true,
			"name":"Brown",
			"pbrMetallicRoughness":{
				"baseColorFactor":[
					0.1306528002023697,
					0.05713465437293053,
					0.03233765810728073,
					1
				],
				"metallicFactor":0,
				"roughnessFactor":0.5
			}
		},
		{
			"doubleSided":true,
			"name":"Tan",
			"pbrMetallicRoughness":{
				"baseColorFactor":[
					0.26910942792892456,
					0.1874741017818451,
					0.12671802937984467,
					1
				],
				"metallicFactor":0,
				"roughnessFactor":0.5
			}
		},
		{
			"doubleSided":true,
			"name":"Blue",
			"pbrMetallicRoughness":{
				"baseColorFactor":[
					0.14964905381202698,
					0.2988695502281189,
					0.8000074625015259,
					1
				],
				"metallicFactor":0,
				"roughnessFactor":0.5
			}
		},
		{
			"doubleSided":true,
			"name":"Grey",
			"pbrMetallicRoughness":{
				"baseColorFactor":[
					0.3348400294780731,
					0.3348400294780731,
					0.3348400294780731,
					1
				],
				"metallicFactor":0,
				"roughnessFactor":0.5
			}
		},
		{
			"doubleSided":true,
			"name":"Material",
			"pbrMetallicRoughness":{
				"baseColorFactor":[
					0.800000011920929,
					0.800000011920929,
					0.800000011920929,
					1
				],
				"metallicFactor":0,
				"roughnessFactor":0.5
			}
		},
		{
			"doubleSided":true,
			"name":"Orange",
			"pbrMetallicRoughness":{
				"baseColorFactor":[
					0.8000156879425049,
					0.2017655074596405,
					0.046033162623643875,
					1
				],
				"metallicFactor":0,
				"roughnessFactor":0.5
			}
		}
	],
	"meshes":[
		{
			"name":"Cylinder.007",
			"primitives":[
				{
					"attributes":{
						"POSITION":0,
						"NORMAL":1,
						"TEXCOORD_0":2
					},
					"indices":3,
					"material":0
				},
				{
					"attributes":{
						"POSITION":4,
						"NORMAL":5,
						"TEXCOORD_0":6
					},
					"indices":7
				}
			]
		},
		{
			"name":"Cylinder.003",
			"primitives":[
				{
					"attributes":{
						"POSITION":8,
						"NORMAL":9,
						"TEXCOORD_0":10
					},
					"indices":11,
					"material":1
				}
			]
		},
		{
			"name":"Cylinder.005",
			"primitives":[
				{
					"attributes":{
						"POSITION":12,
						"NORMAL":13,
						"TEXCOORD_0":14
					},
					"indices":15,
					"material":2
				}
			]
		},
		{
			"name":"Cylinder.011",
			"primitives":[
				{
					"attributes":{
						"POSITION":16,
						"NORMAL":17,
						"TEXCOORD_0":18
					},
					"indices":3,
					"material":0
				},
				{
					"attributes":{
						"POSITION":19,
						"NORMAL":20,
						"TEXCOORD_0":21
					},
					"indices":7,
					"material":3
				}
			]
		},
		{
			"name":"Cylinder.009",
			"primitives":[
				{
					"attributes":{
						"POSITION":22,
						"NORMAL":23,
						"TEXCOORD_0":24
					},
					"indices":25,
					"material":1
				}
			]
		},
		{
			"name":"Cylinder.010",
			"primitives":[
				{
					"attributes":{
						"POSITION":26,
						"NORMAL":27,
						"TEXCOORD_0":28
					},
					"indices":29,
					"material":2
				}
			]
		},
		{
			"name":"Cylinder.001",
			"primitives":[
				{
					"attributes":{
						"POSITION":30,
						"NORMAL":31,
						"TEXCOORD_0":32
					},
					"indices":33,
					"material":3
				},
				{
					"attributes":{
						"POSITION":34,
						"NORMAL":35,
						"TEXCOORD_0":36
					},
					"indices":37,
					"material":4
				},
				{
					"attributes":{
						"POSITION":38,
						"NORMAL":39,
						"TEXCOORD_0":40
					},
					"indices":41,
					"material":5
				}
			]
		}
	],
	"accessors":[
		{
			"bufferView":0,
			"componentType":5126,
			"count":228,
			"max":[
				1.2086693048477173,
				5.283166885375977,
				1.0000001192092896
			],
			"min":[
				-1,
				-1,
				-1.0000001192092896
			],
			"type":"VEC3"
		},
		{
			"bufferView":1,
			"componentType":5126,
			"count":228,
			"type":"VEC3"
		},
		{
			"bufferView":2,
			"componentType":5126,
			"count":228,
			"type":"VEC2"
		},
		{
			"bufferView":3,
			"componentType":5123,
			"count":456,
			"type":"SCALAR"
		},
		{
			"bufferView":4,
			"componentType":5126,
			"count":24,
			"max":[
				1.9342560768127441,
				6.766146659851074,
				1.0036760568618774
			],
			"min":[
				1.2125482559204102,
				-2.466499090194702,
				-0.9991122484207153
			],
			"type":"VEC3"
		},
		{
			"bufferView":5,
			"componentType":5126,
			"count":24,
			"type":"VEC3"
		},
		{
			"bufferView":6,
			"componentType":5126,
			"count":24,
			"type":"VEC2"
		},
		{
			"bufferView":7,
			"componentType":5123,
			"count":36,
			"type":"SCALAR"
		},
		{
			"bufferView":8,
			"componentType":5126,
			"count":402,
			"max":[
				14.344827651977539,
				1.0000001192092896,
				1.0030361413955688
			],
			"min":[
				-1.0000001192092896,
				-5.283166885375977,
				-1.0000001192092896
			],
			"type":"VEC3"
		},
		{
			"bufferView":9,
			"componentType":5126,
			"count":402,
			"type":"VEC3"
		},
		{
			"bufferView":10,
			"componentType":5126,
			"count":402,
			"type":"VEC2"
		},
		{
			"bufferView":11,
			"componentType":5123,
			"count":828,
			"type":"SCALAR"
		},
		{
			"bufferView":12,
			"componentType":5126,
			"count":236,
			"max":[
				14.337291717529297,
				1.000000238418579,
				1.003216028213501
			],
			"min":[
				-1,
				-1.000000238418579,
				-0.9998201131820679
			],
			"type":"VEC3"
		},
		{
			"bufferView":13,
			"componentType":5126,
			"count":236,
			"type":"VEC3"
		},
		{
			"bufferView":14,
			"componentType":5126,
			"count":236,
			"type":"VEC2"
		},
		{
			"bufferView":15,
			"componentType":5123,
			"count":492,
			"type":"SCALAR"
		},
		{
			"bufferView":16,
			"componentType":5126,
			"count":228,
			"max":[
				1.2086693048477173,
				5.283166885375977,
				1.0000001192092896
			],
			"min":[
				-1,
				-1,
				-1.0000001192092896
			],
			"type":"VEC3"
		},
		{
			"bufferView":17,
			"componentType":5126,
			"count":228,
			"type":"VEC3"
		},
		{
			"bufferView":18,
			"componentType":5126,
			"count":228,
			"type":"VEC2"
		},
		{
			"bufferView":19,
			"componentType":5126,
			"count":24,
			"max":[
				1.9342560768127441,
				6.766146659851074,
				1.0036760568618774
			],
			"min":[
				1.2125482559204102,
				-2.466499090194702,
				-0.9991122484207153
			],
			"type":"VEC3"
		},
		{
			"bufferView":20,
			"componentType":5126,
			"count":24,
			"type":"VEC3"
		},
		{
			"bufferView":21,
			"componentType":5126,
			"count":24,
			"type":"VEC2"
		},
		{
			"bufferView":22,
			"componentType":5126,
			"count":396,
			"max":[
				14.344827651977539,
				1.0000001192092896,
				1.0030361413955688
			],
			"min":[
				-1.0000001192092896,
				-5.283166885375977,
				-1.0000001192092896
			],
			"type":"VEC3"
		},
		{
			"bufferView":23,
			"componentType":5126,
			"count":396,
			"type":"VEC3"
		},
		{
			"bufferView":24,
			"componentType":5126,
			"count":396,
			"type":"VEC2"
		},
		{
			"bufferView":25,
			"componentType":5123,
			"count":804,
			"type":"SCALAR"
		},
		{
			"bufferView":26,
			"componentType":5126,
			"count":236,
			"max":[
				14.337291717529297,
				1.000000238418579,
				1.003216028213501
			],
			"min":[
				-1,
				-1.000000238418579,
				-0.9998201131820679
			],
			"type":"VEC3"
		},
		{
			"bufferView":27,
			"componentType":5126,
			"count":236,
			"type":"VEC3"
		},
		{
			"bufferView":28,
			"componentType":5126,
			"count":236,
			"type":"VEC2"
		},
		{
			"bufferView":29,
			"componentType":5123,
			"count":492,
			"type":"SCALAR"
		},
		{
			"bufferView":30,
			"componentType":5126,
			"count":472,
			"max":[
				9.189146995544434,
				10.356575965881348,
				1.0036754608154297
			],
			"min":[
				-1,
				-6.056927680969238,
				-1.0000004768371582
			],
			"type":"VEC3"
		},
		{
			"bufferView":31,
			"componentType":5126,
			"count":472,
			"type":"VEC3"
		},
		{
			"bufferView":32,
			"componentType":5126,
			"count":472,
			"type":"VEC2"
		},
		{
			"bufferView":33,
			"componentType":5123,
			"count":936,
			"type":"SCALAR"
		},
		{
			"bufferView":34,
			"componentType":5126,
			"count":8,
			"max":[
				6.9756975173950195,
				10.356575965881348,
				1.0036754608154297
			],
			"min":[
				1.2125482559204102,
				-6.056927680969238,
				-0.9991121292114258
			],
			"type":"VEC3"
		},
		{
			"bufferView":35,
			"componentType":5126,
			"count":8,
			"type":"VEC3"
		},
		{
			"bufferView":36,
			"componentType":5126,
			"count":8,
			"type":"VEC2"
		},
		{
			"bufferView":37,
			"componentType":5123,
			"count":12,
			"type":"SCALAR"
		},
		{
			"bufferView":38,
			"componentType":5126,
			"count":2176,
			"max":[
				6.9726409912109375,
				10.347870826721191,
				0.9298509359359741
			],
			"min":[
				1.8550996780395508,
				-11.915277481079102,
				-4.71486759185791
			],
			"type":"VEC3"
		},
		{
			"bufferView":39,
			"componentType":5126,
			"count":2176,
			"type":"VEC3"
		},
		{
			"bufferView":40,
			"componentType":5126,
			"count":2176,
			"type":"VEC2"
		},
		{
			"bufferView":41,
			"componentType":5123,
			"count":3252,
			"type":"SCALAR"
		}
	],
	"bufferViews":[
		{
			"buffer":0,
			"byteLength":2736,
			"byteOffset":0,
			"target":34962
		},
		{
			"buffer":0,
			"byteLength":2736,
			"byteOffset":2736,
			"target":34962
		},
		{
			"buffer":0,
			"byteLength":1824,
			"byteOffset":5472,
			"target":34962
		},
		{
			"buffer":0,
			"byteLength":912,
			"byteOffset":7296,
			"target":34963
		},
		{
			"buffer":0,
			"byteLength":288,
			"byteOffset":8208,
			"target":34962
		},
		{
			"buffer":0,
			"byteLength":288,
			"byteOffset":8496,
			"target":34962
		},
		{
			"buffer":0,
			"byteLength":192,
			"byteOffset":8784,
			"target":34962
		},
		{
			"buffer":0,
			"byteLength":72,
			"byteOffset":8976,
			"target":34963
		},
		{
			"buffer":0,
			"byteLength":4824,
			"byteOffset":9048,
			"target":34962
		},
		{
			"buffer":0,
			"byteLength":4824,
			"byteOffset":13872,
			"target":34962
		},
		{
			"buffer":0,
			"byteLength":3216,
			"byteOffset":18696,
			"target":34962
		},
		{
			"buffer":0,
			"byteLength":1656,
			"byteOffset":21912,
			"target":34963
		},
		{
			"buffer":0,
			"byteLength":2832,
			"byteOffset":23568,
			"target":34962
		},
		{
			"buffer":0,
			"byteLength":2832,
			"byteOffset":26400,
			"target":34962
		},
		{
			"buffer":0,
			"byteLength":1888,
			"byteOffset":29232,
			"target":34962
		},
		{
			"buffer":0,
			"byteLength":984,
			"byteOffset":31120,
			"target":34963
		},
		{
			"buffer":0,
			"byteLength":2736,
			"byteOffset":32104,
			"target":34962
		},
		{
			"buffer":0,
			"byteLength":2736,
			"byteOffset":34840,
			"target":34962
		},
		{
			"buffer":0,
			"byteLength":1824,
			"byteOffset":37576,
			"target":34962
		},
		{
			"buffer":0,
			"byteLength":288,
			"byteOffset":39400,
			"target":34962
		},
		{
			"buffer":0,
			"byteLength":288,
			"byteOffset":39688,
			"target":34962
		},
		{
			"buffer":0,
			"byteLength":192,
			"byteOffset":39976,
			"target":34962
		},
		{
			"buffer":0,
			"byteLength":4752,
			"byteOffset":40168,
			"target":34962
		},
		{
			"buffer":0,
			"byteLength":4752,
			"byteOffset":44920,
			"target":34962
		},
		{
			"buffer":0,
			"byteLength":3168,
			"byteOffset":49672,
			"target":34962
		},
		{
			"buffer":0,
			"byteLength":1608,
			"byteOffset":52840,
			"target":34963
		},
		{
			"buffer":0,
			"byteLength":2832,
			"byteOffset":54448,
			"target":34962
		},
		{
			"buffer":0,
			"byteLength":2832,
			"byteOffset":57280,
			"target":34962
		},
		{
			"buffer":0,
			"byteLength":1888,
			"byteOffset":60112,
			"target":34962
		},
		{
			"buffer":0,
			"byteLength":984,
			"byteOffset":62000,
			"target":34963
		},
		{
			"buffer":0,
			"byteLength":5664,
			"byteOffset":62984,
			"target":34962
		},
		{
			"buffer":0,
			"byteLength":5664,
			"byteOffset":68648,
			"target":34962
		},
		{
			"buffer":0,
			"byteLength":3776,
			"byteOffset":74312,
			"target":34962
		},
		{
			"buffer":0,
			"byteLength":1872,
			"byteOffset":78088,
			"target":34963
		},
		{
			"buffer":0,
			"byteLength":96,
			"byteOffset":79960,
			"target":34962
		},
		{
			"buffer":0,
			"byteLength":96,
			"byteOffset":80056,
			"target":34962
		},
		{
			"buffer":0,
			"byteLength":64,
			"byteOffset":80152,
			"target":34962
		},
		{
			"buffer":0,
			"byteLength":24,
			"byteOffset":80216,
			"target":34963
		},
		{
			"buffer":0,
			"byteLength":26112,
			"byteOffset":80240,
			"target":34962
		},
		{
			"buffer":0,
			"byteLength":26112,
			"byteOffset":106352,
			"target":34962
		},
		{
			"buffer":0,
			"byteLength":17408,
			"byteOffset":132464,
			"target":34962
		},
		{
			"buffer":0,
			"byteLength":6504,
			"byteOffset":149872,
			"target":34963
		}
	],
	"buffers":[
		{
			"byteLength":156376,
			"uri":"2DWalker_v0_1.bin"
		}
	]
}
